<mxfile host="app.diagrams.net" scale="1" border="20" modified="2024-02-03T11:40:46.042Z" agent="Mozilla/5.0 (X11; Ubuntu; Linux x86_64; rv:122.0) Gecko/20100101 Firefox/122.0" etag="NzPpsI6pe15cuam7ud5z" version="23.1.1" type="device">
  <diagram name="architecture 3d-inventory API" id="2YBvvXClWsGukQMizWep">
    <mxGraphModel dx="1088" dy="942" grid="1" gridSize="10" guides="1" tooltips="1" connect="1" arrows="1" fold="1" page="0" pageScale="1" pageWidth="1100" pageHeight="850" background="#CFCFCF" math="0" shadow="0">
      <root>
        <mxCell id="0" />
        <mxCell id="1" parent="0" />
        <mxCell id="9coqSmU1fN5mkPP7T_2O-18" value="Actor" style="shape=umlActor;verticalLabelPosition=bottom;verticalAlign=top;html=1;outlineConnect=0;labelBorderColor=none;labelBackgroundColor=none;fillColor=none;strokeWidth=2;rounded=0;sketch=1;curveFitting=1;jiggle=2;" parent="1" vertex="1">
          <mxGeometry x="850" y="141.67000000000002" width="30" height="60" as="geometry" />
        </mxCell>
        <mxCell id="28" value="" style="endArrow=none;html=1;endFill=0;curved=1;shadow=0;startArrow=open;startFill=0;strokeWidth=1;labelBorderColor=none;labelBackgroundColor=none;fontColor=default;rounded=0;sketch=1;curveFitting=1;jiggle=2;" parent="1" source="9coqSmU1fN5mkPP7T_2O-3" target="35" edge="1">
          <mxGeometry width="50" height="50" relative="1" as="geometry">
            <mxPoint x="460" y="130" as="sourcePoint" />
            <mxPoint x="694.5" y="130" as="targetPoint" />
            <Array as="points">
              <mxPoint x="560" y="150" />
              <mxPoint x="650" y="150" />
            </Array>
          </mxGeometry>
        </mxCell>
        <mxCell id="29" value="REST" style="edgeLabel;html=1;align=center;verticalAlign=middle;resizable=0;points=[];labelBorderColor=none;labelBackgroundColor=none;rounded=0;sketch=1;curveFitting=1;jiggle=2;" parent="28" vertex="1" connectable="0">
          <mxGeometry x="-0.6066" y="2" relative="1" as="geometry">
            <mxPoint x="97" y="-8" as="offset" />
          </mxGeometry>
        </mxCell>
        <mxCell id="30" value="" style="endArrow=open;html=1;endFill=0;shadow=0;startArrow=none;startFill=0;strokeWidth=1;rounded=0;labelBorderColor=none;labelBackgroundColor=none;fontColor=default;sketch=1;curveFitting=1;jiggle=2;" parent="1" source="9coqSmU1fN5mkPP7T_2O-3" target="35" edge="1">
          <mxGeometry width="50" height="50" relative="1" as="geometry">
            <mxPoint x="460" y="169.99666666666684" as="sourcePoint" />
            <mxPoint x="694.5" y="190" as="targetPoint" />
            <Array as="points">
              <mxPoint x="550" y="180" />
              <mxPoint x="640" y="180" />
            </Array>
          </mxGeometry>
        </mxCell>
        <mxCell id="31" value="REST" style="edgeLabel;html=1;align=center;verticalAlign=middle;resizable=0;points=[];labelBorderColor=none;labelBackgroundColor=none;rounded=0;sketch=1;curveFitting=1;jiggle=2;" parent="30" vertex="1" connectable="0">
          <mxGeometry x="-0.6066" y="2" relative="1" as="geometry">
            <mxPoint x="97" y="-8" as="offset" />
          </mxGeometry>
        </mxCell>
        <mxCell id="32" value="" style="endArrow=classic;startArrow=classic;html=1;rounded=0;dashed=1;strokeWidth=1;labelBorderColor=none;labelBackgroundColor=none;fontColor=default;sketch=1;curveFitting=1;jiggle=2;" parent="1" edge="1">
          <mxGeometry width="50" height="50" relative="1" as="geometry">
            <mxPoint x="790" y="172" as="sourcePoint" />
            <mxPoint x="860" y="171.67000000000002" as="targetPoint" />
          </mxGeometry>
        </mxCell>
        <mxCell id="33" value="Angular App - client" style="swimlane;whiteSpace=wrap;html=1;rounded=1;shadow=1;labelBorderColor=none;labelBackgroundColor=none;separatorColor=#000000;fillColor=none;glass=1;sketch=1;curveFitting=1;jiggle=2;" parent="1" vertex="1">
          <mxGeometry x="600" y="20" width="190" height="260" as="geometry" />
        </mxCell>
        <mxCell id="35" value="Node-Fetch" style="shape=umlLifeline;perimeter=lifelinePerimeter;whiteSpace=wrap;html=1;container=0;dropTarget=0;collapsible=0;recursiveResize=0;outlineConnect=0;portConstraint=eastwest;newEdgeStyle={&quot;edgeStyle&quot;:&quot;elbowEdgeStyle&quot;,&quot;elbow&quot;:&quot;vertical&quot;,&quot;curved&quot;:0,&quot;rounded&quot;:0};labelBorderColor=none;labelBackgroundColor=none;fillColor=none;rounded=1;sketch=1;curveFitting=1;jiggle=2;" parent="33" vertex="1">
          <mxGeometry x="20" y="60" width="150" height="130" as="geometry" />
        </mxCell>
        <mxCell id="36" value="CROS" style="html=1;points=[];perimeter=orthogonalPerimeter;outlineConnect=0;targetShapes=umlLifeline;portConstraint=eastwest;newEdgeStyle={&quot;edgeStyle&quot;:&quot;elbowEdgeStyle&quot;,&quot;elbow&quot;:&quot;vertical&quot;,&quot;curved&quot;:0,&quot;rounded&quot;:0};labelBorderColor=none;labelBackgroundColor=none;fillStyle=solid;fillColor=none;rounded=1;sketch=1;curveFitting=1;jiggle=2;" parent="33" vertex="1">
          <mxGeometry x="20" y="190" width="150" height="30" as="geometry" />
        </mxCell>
        <mxCell id="38" value="Server Node Express" style="swimlane;whiteSpace=wrap;html=1;rounded=1;shadow=1;glass=0;swimlaneFillColor=none;labelBackgroundColor=none;sketch=1;curveFitting=1;jiggle=2;" parent="1" vertex="1">
          <mxGeometry x="300" width="240" height="310" as="geometry" />
        </mxCell>
        <mxCell id="9coqSmU1fN5mkPP7T_2O-3" value="&lt;div&gt;node mongodb&lt;/div&gt;&lt;div&gt;&lt;br&gt;&lt;/div&gt;" style="shape=umlLifeline;perimeter=lifelinePerimeter;whiteSpace=wrap;html=1;container=0;dropTarget=0;collapsible=0;recursiveResize=0;outlineConnect=0;portConstraint=eastwest;newEdgeStyle={&quot;edgeStyle&quot;:&quot;elbowEdgeStyle&quot;,&quot;elbow&quot;:&quot;vertical&quot;,&quot;curved&quot;:0,&quot;rounded&quot;:0};labelBorderColor=none;labelBackgroundColor=none;fillColor=none;rounded=1;sketch=1;curveFitting=1;jiggle=2;" parent="38" vertex="1">
          <mxGeometry x="35" y="90" width="170" height="140" as="geometry" />
        </mxCell>
        <mxCell id="9coqSmU1fN5mkPP7T_2O-6" value="CROS" style="html=1;points=[];perimeter=orthogonalPerimeter;outlineConnect=0;targetShapes=umlLifeline;portConstraint=eastwest;newEdgeStyle={&quot;edgeStyle&quot;:&quot;elbowEdgeStyle&quot;,&quot;elbow&quot;:&quot;vertical&quot;,&quot;curved&quot;:0,&quot;rounded&quot;:0};labelBorderColor=none;labelBackgroundColor=none;fillStyle=solid;fillColor=none;rounded=1;sketch=1;curveFitting=1;jiggle=2;" parent="9coqSmU1fN5mkPP7T_2O-3" vertex="1">
          <mxGeometry y="140" width="170" height="30" as="geometry" />
        </mxCell>
        <mxCell id="40" value="Helmet" style="html=1;points=[];perimeter=orthogonalPerimeter;outlineConnect=0;targetShapes=umlLifeline;portConstraint=eastwest;newEdgeStyle={&quot;edgeStyle&quot;:&quot;elbowEdgeStyle&quot;,&quot;elbow&quot;:&quot;vertical&quot;,&quot;curved&quot;:0,&quot;rounded&quot;:0};labelBorderColor=none;labelBackgroundColor=none;fillStyle=solid;fillColor=none;rounded=1;sketch=1;curveFitting=1;jiggle=2;" parent="38" vertex="1">
          <mxGeometry x="35" y="260" width="170" height="30" as="geometry" />
        </mxCell>
        <mxCell id="9coqSmU1fN5mkPP7T_2O-2" value="&lt;font color=&quot;#000000&quot;&gt;Swagger 3.0.3&lt;/font&gt;" style="swimlane;whiteSpace=wrap;html=1;rounded=1;shadow=0;labelBorderColor=none;labelBackgroundColor=none;separatorColor=#000000;fillColor=none;sketch=1;curveFitting=1;jiggle=2;" parent="38" vertex="1">
          <mxGeometry x="20" y="40" width="200" height="260" as="geometry" />
        </mxCell>
        <mxCell id="39" value="&lt;b&gt;Mongo DB&lt;/b&gt;" style="shape=datastore;whiteSpace=wrap;html=1;shadow=1;strokeWidth=2;labelBackgroundColor=none;rounded=0;sketch=1;curveFitting=1;jiggle=2;gradientColor=none;fillStyle=auto;" parent="1" vertex="1">
          <mxGeometry x="120" y="141.67000000000002" width="110" height="50" as="geometry" />
        </mxCell>
        <mxCell id="3dTa3-6MUE6jZoTy00kX-40" value="&lt;b&gt;Oracle DB&lt;br&gt;&lt;/b&gt;" style="shape=datastore;whiteSpace=wrap;html=1;shadow=1;strokeWidth=2;labelBackgroundColor=none;rounded=0;sketch=1;curveFitting=1;jiggle=2;gradientColor=none;fillStyle=auto;" vertex="1" parent="1">
          <mxGeometry x="120" y="230" width="110" height="50" as="geometry" />
        </mxCell>
        <mxCell id="3dTa3-6MUE6jZoTy00kX-41" value="&lt;b&gt;Mongo Atals DB&lt;/b&gt;" style="shape=datastore;whiteSpace=wrap;html=1;shadow=1;strokeWidth=2;labelBackgroundColor=none;rounded=0;sketch=1;curveFitting=1;jiggle=2;gradientColor=none;fillStyle=auto;" vertex="1" parent="1">
          <mxGeometry x="120" y="60.000000000000014" width="110" height="50" as="geometry" />
        </mxCell>
        <mxCell id="9coqSmU1fN5mkPP7T_2O-10" value="" style="endArrow=classicThin;html=1;endFill=1;shadow=0;startArrow=classicThin;startFill=1;strokeWidth=2;rounded=1;labelBorderColor=none;labelBackgroundColor=none;fontColor=default;sketch=1;curveFitting=1;jiggle=2;curved=0;strokeColor=default;exitX=1;exitY=0.5;exitDx=0;exitDy=0;" parent="1" source="3dTa3-6MUE6jZoTy00kX-41" target="9coqSmU1fN5mkPP7T_2O-3" edge="1">
          <mxGeometry width="50" height="50" relative="1" as="geometry">
            <mxPoint x="180" y="90" as="sourcePoint" />
            <mxPoint x="419.5" y="171.66666666666674" as="targetPoint" />
            <Array as="points">
              <mxPoint x="280" y="85" />
              <mxPoint x="310" y="150" />
            </Array>
          </mxGeometry>
        </mxCell>
        <mxCell id="9coqSmU1fN5mkPP7T_2O-17" value="modngodb driver" style="edgeLabel;html=1;align=center;verticalAlign=middle;resizable=0;points=[];labelBorderColor=none;labelBackgroundColor=none;rounded=0;sketch=1;curveFitting=1;jiggle=2;" parent="9coqSmU1fN5mkPP7T_2O-10" vertex="1" connectable="0">
          <mxGeometry x="-0.6066" y="2" relative="1" as="geometry">
            <mxPoint x="16" y="-8" as="offset" />
          </mxGeometry>
        </mxCell>
      </root>
    </mxGraphModel>
  </diagram>
</mxfile>
